<svg width="54" height="58" viewBox="0 0 54 58" fill="none" xmlns="http://www.w3.org/2000/svg">
<path d="M47.6527 36.8405L53.4423 39.9497C54.1859 40.349 54.1859 41.4887 53.4423 41.888L27.9024 55.6039C27.3344 55.9089 26.6658 55.9089 26.0978 55.6039L0.557892 41.888C-0.185655 41.4887 -0.185657 40.349 0.55789 39.9497L6.34749 36.8405L24.2932 46.4779C25.9972 47.3931 28.003 47.3931 29.7071 46.4779L47.6527 36.8405Z" fill="#ffffff80"/>
<path d="M26.0976 0.228786C26.6656 -0.0762616 27.3342 -0.076262 27.9022 0.228785L53.4421 13.9447C54.1857 14.344 54.1857 15.4837 53.4421 15.883L27.9022 29.5988C27.3342 29.9039 26.6656 29.9039 26.0976 29.5988L0.557661 15.883C-0.185886 15.4837 -0.185887 14.344 0.557659 13.9447L26.0976 0.228786Z" fill="#ffffff80"/>
<path d="M47.6527 23.8379L53.4423 26.9472C54.1859 27.3465 54.1859 28.4862 53.4423 28.8855L27.9024 42.6013C27.3344 42.9064 26.6658 42.9064 26.0978 42.6013L0.557892 28.8855C-0.185655 28.4862 -0.185657 27.3465 0.55789 26.9472L6.3475 23.8379L24.2932 33.4754C25.9972 34.3906 28.003 34.3906 29.7071 33.4754L47.6527 23.8379Z" fill="#ffffff80"/>
</svg>
