<svg width="58" height="49" viewBox="0 0 58 49" fill="none" xmlns="http://www.w3.org/2000/svg">
<path d="M52.5625 4.8125C53.5635 4.8125 54.375 5.69394 54.375 6.78125V42.2188C54.375 43.3061 53.5635 44.1875 52.5625 44.1875H5.4375C4.43648 44.1875 3.625 43.3061 3.625 42.2188V6.78125C3.625 5.69394 4.43648 4.8125 5.4375 4.8125H52.5625ZM5.4375 0.875C2.43445 0.875 0 3.51932 0 6.78125V42.2188C0 45.4807 2.43445 48.125 5.4375 48.125H52.5625C55.5655 48.125 58 45.4807 58 42.2188V6.78125C58 3.51932 55.5655 0.875 52.5625 0.875H5.4375Z" fill="#707070"/>
<path d="M10.875 26.4688C10.875 25.3814 11.6865 24.5 12.6875 24.5H45.3125C46.3135 24.5 47.125 25.3814 47.125 26.4688C47.125 27.5561 46.3135 28.4375 45.3125 28.4375H12.6875C11.6865 28.4375 10.875 27.5561 10.875 26.4688ZM10.875 34.3438C10.875 33.2564 11.6865 32.375 12.6875 32.375H34.4375C35.4385 32.375 36.25 33.2564 36.25 34.3438C36.25 35.4311 35.4385 36.3125 34.4375 36.3125H12.6875C11.6865 36.3125 10.875 35.4311 10.875 34.3438Z" fill="#707070"/>
<path d="M10.875 14.6562C10.875 13.5689 11.6865 12.6875 12.6875 12.6875H45.3125C46.3135 12.6875 47.125 13.5689 47.125 14.6562V18.5938C47.125 19.6811 46.3135 20.5625 45.3125 20.5625H12.6875C11.6865 20.5625 10.875 19.6811 10.875 18.5938V14.6562Z" fill="#707070"/>
</svg>
