<svg width="63" height="59" viewBox="0 0 63 59" fill="none" xmlns="http://www.w3.org/2000/svg">
<path fill-rule="evenodd" clip-rule="evenodd" d="M3.9375 42.4063C3.9375 43.4245 4.81894 44.25 5.90625 44.25H52.3408L39.9516 55.8525C39.1828 56.5725 39.1828 57.74 39.9516 58.46C40.7205 59.18 41.967 59.18 42.7359 58.46L58.4859 43.71C59.2547 42.99 59.2547 41.8225 58.4859 41.1025L42.7359 26.3525C41.967 25.6325 40.7205 25.6325 39.9516 26.3525C39.1828 27.0726 39.1828 28.24 39.9516 28.96L52.3408 40.5625H5.90625C4.81894 40.5625 3.9375 41.388 3.9375 42.4063Z" fill="#707070"/>
<path fill-rule="evenodd" clip-rule="evenodd" d="M59.0625 16.5938C59.0625 17.612 58.1811 18.4375 57.0938 18.4375L10.6592 18.4375L23.0484 30.04C23.8172 30.76 23.8172 31.9275 23.0484 32.6475C22.2795 33.3675 21.033 33.3675 20.2641 32.6475L4.51413 17.8975C3.74529 17.1775 3.74529 16.01 4.51413 15.29L20.2641 0.540022C21.033 -0.180007 22.2795 -0.180007 23.0484 0.540022C23.8172 1.26005 23.8172 2.42745 23.0484 3.14748L10.6592 14.75L57.0938 14.75C58.1811 14.75 59.0625 15.5755 59.0625 16.5938Z" fill="#707070"/>
</svg>
