<svg width="58" height="52" viewBox="0 0 58 52" fill="none" xmlns="http://www.w3.org/2000/svg">
<path d="M50.75 30.875C50.75 34.4649 47.504 37.375 43.5 37.375C39.4959 37.375 36.25 34.4649 36.25 30.875C36.25 27.2852 39.4959 24.375 43.5 24.375C47.504 24.375 50.75 27.2852 50.75 30.875ZM28.9999 49.4C28.9999 52 31.8999 52 31.8999 52H55.0999C55.0999 52 57.9999 52 57.9999 49.4C57.9999 46.8 55.0999 39 43.4999 39C31.8999 39 28.9999 46.8 28.9999 49.4Z" fill="#707070"/>
<path d="M7.25 6.5C3.24594 6.5 0 9.41015 0 13V39C0 42.5899 3.24594 45.5 7.25 45.5H26.2555C26.6988 44.4391 27.3239 43.3275 28.1629 42.25H7.25C5.24797 42.25 3.625 40.7949 3.625 39V13C3.625 11.2051 5.24797 9.75 7.25 9.75H50.75C52.752 9.75 54.375 11.2051 54.375 13V38.3845C55.6562 39.1293 56.7521 39.9942 57.6757 40.9283C57.8865 40.319 58 39.6714 58 39V13C58 9.41015 54.7541 6.5 50.75 6.5H7.25Z" fill="#707070"/>
</svg>
