<svg width="58" height="56" viewBox="0 0 58 56" fill="none" xmlns="http://www.w3.org/2000/svg">
<path d="M5.4375 3.5C4.43648 3.5 3.625 4.2835 3.625 5.25V15.75C3.625 16.7165 2.81352 17.5 1.8125 17.5C0.811484 17.5 0 16.7165 0 15.75V5.25C0 2.35051 2.43445 0 5.4375 0H16.3125C17.3135 0 18.125 0.783502 18.125 1.75C18.125 2.7165 17.3135 3.5 16.3125 3.5H5.4375ZM39.875 1.75C39.875 0.783502 40.6865 0 41.6875 0H52.5625C55.5655 0 58 2.35051 58 5.25V15.75C58 16.7165 57.1885 17.5 56.1875 17.5C55.1865 17.5 54.375 16.7165 54.375 15.75V5.25C54.375 4.2835 53.5635 3.5 52.5625 3.5H41.6875C40.6865 3.5 39.875 2.7165 39.875 1.75ZM1.8125 38.5C2.81352 38.5 3.625 39.2835 3.625 40.25V50.75C3.625 51.7165 4.43648 52.5 5.4375 52.5H16.3125C17.3135 52.5 18.125 53.2835 18.125 54.25C18.125 55.2165 17.3135 56 16.3125 56H5.4375C2.43445 56 0 53.6495 0 50.75V40.25C0 39.2835 0.811484 38.5 1.8125 38.5ZM56.1875 38.5C57.1885 38.5 58 39.2835 58 40.25V50.75C58 53.6495 55.5655 56 52.5625 56H41.6875C40.6865 56 39.875 55.2165 39.875 54.25C39.875 53.2835 40.6865 52.5 41.6875 52.5H52.5625C53.5635 52.5 54.375 51.7165 54.375 50.75V40.25C54.375 39.2835 55.1865 38.5 56.1875 38.5Z" fill="#707070"/>
<path d="M10.875 15.75C10.875 14.7835 11.6865 14 12.6875 14C13.6885 14 14.5 14.7835 14.5 15.75V40.25C14.5 41.2165 13.6885 42 12.6875 42C11.6865 42 10.875 41.2165 10.875 40.25V15.75Z" fill="#707070"/>
<path d="M18.125 15.75C18.125 14.7835 18.9365 14 19.9375 14C20.9385 14 21.75 14.7835 21.75 15.75V40.25C21.75 41.2165 20.9385 42 19.9375 42C18.9365 42 18.125 41.2165 18.125 40.25V15.75Z" fill="#707070"/>
<path d="M25.375 15.75C25.375 14.7835 26.1865 14 27.1875 14C28.1885 14 29 14.7835 29 15.75V40.25C29 41.2165 28.1885 42 27.1875 42C26.1865 42 25.375 41.2165 25.375 40.25V15.75Z" fill="#707070"/>
<path d="M32.625 15.75C32.625 14.7835 33.4365 14 34.4375 14H38.0625C39.0635 14 39.875 14.7835 39.875 15.75V40.25C39.875 41.2165 39.0635 42 38.0625 42H34.4375C33.4365 42 32.625 41.2165 32.625 40.25V15.75Z" fill="#707070"/>
<path d="M43.5 15.75C43.5 14.7835 44.3115 14 45.3125 14C46.3135 14 47.125 14.7835 47.125 15.75V40.25C47.125 41.2165 46.3135 42 45.3125 42C44.3115 42 43.5 41.2165 43.5 40.25V15.75Z" fill="#707070"/>
</svg>
