<svg width="55" height="44" viewBox="0 0 55 44" fill="none" xmlns="http://www.w3.org/2000/svg">
<path d="M0 9.3125C0 4.30742 3.84755 0.25 8.59375 0.25H46.4062C51.1524 0.25 55 4.30742 55 9.3125V34.6875C55 39.6926 51.1524 43.75 46.4062 43.75H8.59375C3.84755 43.75 0 39.6926 0 34.6875V9.3125ZM8.59375 3.875C5.74603 3.875 3.4375 6.30945 3.4375 9.3125V34.6875C3.4375 37.6905 5.74603 40.125 8.59375 40.125H46.4062C49.254 40.125 51.5625 37.6905 51.5625 34.6875V9.3125C51.5625 6.30945 49.254 3.875 46.4062 3.875H8.59375ZM45.9028 20.7184C46.5741 21.4262 46.5741 22.5738 45.9028 23.2816L35.5903 34.1566C34.9191 34.8645 33.8309 34.8645 33.1597 34.1566C32.4884 33.4488 32.4884 32.3012 33.1597 31.5934L43.4722 20.7184C44.1434 20.0105 45.2316 20.0105 45.9028 20.7184ZM45.9028 29.7809C46.5741 30.4887 46.5741 31.6363 45.9028 32.3441L44.1841 34.1566C43.5129 34.8645 42.4246 34.8645 41.7534 34.1566C41.0822 33.4488 41.0822 32.3012 41.7534 31.5934L43.4722 29.7809C44.1434 29.073 45.2316 29.073 45.9028 29.7809Z" fill="#707070"/>
</svg>
